<?xml version="1.0" encoding="utf-8"?>
<!-- Generator: Adobe Illustrator 16.0.0, SVG Export Plug-In . SVG Version: 6.00 Build 0)  -->
<!DOCTYPE svg PUBLIC "-//W3C//DTD SVG 1.1//EN" "http://www.w3.org/Graphics/SVG/1.1/DTD/svg11.dtd">
<svg version="1.1" id="Layer_1" xmlns="http://www.w3.org/2000/svg" xmlns:xlink="http://www.w3.org/1999/xlink" x="0px" y="0px"
	 width="32px" height="32px" viewBox="0 0 32 32" enable-background="new 0 0 32 32" xml:space="preserve">
<title>camera</title>
<path fill="#343A40" d="M27,17.047l-5-2.003v-4.008l5-2.004c0.553,0,1,0.449,1,1.002v6.012C28,16.6,27.553,17.047,27,17.047z
	 M17.5,10.033c-2.485,0-4.5-2.019-4.5-4.509c0-2.49,2.015-4.509,4.5-4.509c2.484,0,4.5,2.019,4.5,4.509
	C22,8.015,19.984,10.033,17.5,10.033z M8.5,10.033c-2.485,0-4.5-2.019-4.5-4.509c0-2.49,2.015-4.509,4.5-4.509S13,3.034,13,5.524
	C13,8.015,10.985,10.033,8.5,10.033z M21,10.033v9.018h-5.582c-0.052,0.832-0.416,1.549-0.957,1.955h0.564l3.989,8.996H18.02
	l-1.33-3h-2.66V32h-0.997v-4.998h-2.702l-1.351,3H7.985l4.052-8.996h0.377c-0.541-0.406-0.905-1.123-0.957-1.955H5v-9.018H21z
	 M13.032,21.316c-0.041-0.01-0.079-0.031-0.119-0.045l-2.132,4.73h2.251V21.316z M14.029,21.244v4.76h2.217l-2.126-4.795
	C14.091,21.223,14.061,21.232,14.029,21.244z"/>
</svg>
