<?xml version="1.0" encoding="utf-8"?>
<!-- Generator: Adobe Illustrator 16.0.0, SVG Export Plug-In . SVG Version: 6.00 Build 0)  -->
<!DOCTYPE svg PUBLIC "-//W3C//DTD SVG 1.1//EN" "http://www.w3.org/Graphics/SVG/1.1/DTD/svg11.dtd">
<svg version="1.1" id="Layer_1" xmlns="http://www.w3.org/2000/svg" xmlns:xlink="http://www.w3.org/1999/xlink" x="0px" y="0px"
	 width="32px" height="32px" viewBox="0 0 32 32" enable-background="new 0 0 32 32" xml:space="preserve">
<title>film</title>
<path fill="#343A40" d="M4,6v22h22V6H4z M8,26H6v-2h2V26z M8,23H6v-2h2V23z M8,20H6v-2h2V20z M8,16H6v-2h2V16z M8,13H6v-2h2V13z
	 M8,10H6V8h2V10z M20,26H10v-8h10V26z M20,16H10V8h10V16z M24,26h-2v-2h2V26z M24,23h-2v-2h2V23z M24,20h-2v-2h2V20z M24,16h-2v-2h2
	V16z M24,13h-2v-2h2V13z M24,10h-2V8h2V10z"/>
</svg>
