<?xml version="1.0" encoding="utf-8"?>
<!-- Generator: Adobe Illustrator 16.0.0, SVG Export Plug-In . SVG Version: 6.00 Build 0)  -->
<!DOCTYPE svg PUBLIC "-//W3C//DTD SVG 1.1//EN" "http://www.w3.org/Graphics/SVG/1.1/DTD/svg11.dtd">
<svg version="1.1" id="Layer_1" xmlns="http://www.w3.org/2000/svg" xmlns:xlink="http://www.w3.org/1999/xlink" x="0px" y="0px"
	 width="32px" height="32px" viewBox="0 0 32 32" enable-background="new 0 0 32 32" xml:space="preserve">
<title>film2</title>
<path fill="#343A40" d="M30.335,26.445c-0.128-0.221-0.538-0.289-1.231-0.202c-1.273,0.165-2.201-0.251-2.776-1.251
	c-0.438-0.756-0.552-1.516-0.341-2.28c0.213-0.764,0.838-1.854,1.875-3.272l0.648-0.902c1.928-2.663,2.323-4.979,1.186-6.95
	c-1.155-2.006-4.5-1.837-6.901-0.806C20.85,6.771,16.753,4,12,4C5.372,4,0,9.373,0,16s5.372,12,12,12c6.627,0,12-5.373,12-12
	c0-1.469-0.277-2.871-0.76-4.171c0.811-0.291,1.781-0.502,2.695-0.536c1.203-0.044,2.291,0.208,2.723,0.956
	c0.963,1.669,0.498,3.641-1.395,5.913l-0.39,0.466c-2.214,2.657-2.743,4.983-1.591,6.981c0.466,0.807,1.207,1.382,2.225,1.728
	c1.02,0.345,1.881,0.312,2.585-0.096C30.443,27.039,30.525,26.773,30.335,26.445z M6.5,18.562c-1.381,0-2.5-1.119-2.5-2.5
	c0-1.38,1.119-2.5,2.5-2.5s2.5,1.119,2.5,2.5C9,17.443,7.881,18.562,6.5,18.562z M12,24.062c-1.381,0-2.5-1.119-2.5-2.5
	s1.119-2.5,2.5-2.5s2.5,1.119,2.5,2.5S13.381,24.062,12,24.062z M11.02,16.062c0-0.552,0.449-1,1.001-1c0.552,0,1,0.447,1,1
	s-0.448,1-1,1C11.469,17.062,11.02,16.615,11.02,16.062z M12,13.062c-1.381,0-2.5-1.119-2.5-2.5s1.119-2.5,2.5-2.5
	s2.5,1.119,2.5,2.5S13.381,13.062,12,13.062z M17.5,18.562c-1.381,0-2.5-1.119-2.5-2.5c0-1.38,1.119-2.5,2.5-2.5s2.5,1.119,2.5,2.5
	C20,17.443,18.881,18.562,17.5,18.562z"/>
</svg>
