<?xml version="1.0" encoding="utf-8"?>
<!-- Generator: Adobe Illustrator 16.0.0, SVG Export Plug-In . SVG Version: 6.00 Build 0)  -->
<!DOCTYPE svg PUBLIC "-//W3C//DTD SVG 1.1//EN" "http://www.w3.org/Graphics/SVG/1.1/DTD/svg11.dtd">
<svg version="1.1" id="Layer_1" xmlns="http://www.w3.org/2000/svg" xmlns:xlink="http://www.w3.org/1999/xlink" x="0px" y="0px"
	 width="150px" height="150px" viewBox="0 0 150 150" enable-background="new 0 0 150 150" xml:space="preserve">
<g>
	<path fill="#FFFFFF" stroke="#343A40" stroke-width="9" stroke-linejoin="round" stroke-miterlimit="10" d="M128.002,29.084
		l-4.277-12.685c-1.401-4.159-5.509-6.53-9.172-5.295L16.947,44.014c-3.663,1.235-5.495,5.608-4.094,9.768l4.277,12.686
		L128.002,29.084z"/>
	<path fill="#FFFFFF" stroke="#343A40" stroke-width="9" stroke-linejoin="round" stroke-miterlimit="10" d="M17.656,70v57.052
		c0,4.39,3.134,7.948,7,7.948H127.66c3.866,0,7-3.559,7-7.948V70H17.656z"/>
</g>
<line fill="none" stroke="#343A40" stroke-width="9" stroke-linejoin="round" stroke-miterlimit="10" x1="24.846" y1="41.014" x2="47.778" y2="55.796"/>
<line fill="none" stroke="#343A40" stroke-width="9" stroke-linejoin="round" stroke-miterlimit="10" x1="44.846" y1="33.014" x2="67.778" y2="47.796"/>
<line fill="none" stroke="#343A40" stroke-width="9" stroke-linejoin="round" stroke-miterlimit="10" x1="67.846" y1="26.014" x2="90.778" y2="40.796"/>
<line fill="none" stroke="#343A40" stroke-width="9" stroke-linejoin="round" stroke-miterlimit="10" x1="89.846" y1="19.014" x2="112.778" y2="33.796"/>
<polygon fill="none" stroke="#343A40" stroke-width="5" stroke-linecap="round" stroke-linejoin="round" stroke-miterlimit="10" points="
	76.521,82.633 82.703,95.158 96.525,97.166 86.523,106.916 88.885,120.683 76.521,114.183 64.158,120.683 66.52,106.916 
	56.518,97.166 70.34,95.158 "/>
</svg>
