<?xml version="1.0" encoding="utf-8"?>
<!-- Generator: Adobe Illustrator 16.0.0, SVG Export Plug-In . SVG Version: 6.00 Build 0)  -->
<!DOCTYPE svg PUBLIC "-//W3C//DTD SVG 1.1//EN" "http://www.w3.org/Graphics/SVG/1.1/DTD/svg11.dtd">
<svg version="1.1" id="Layer_1" xmlns="http://www.w3.org/2000/svg" xmlns:xlink="http://www.w3.org/1999/xlink" x="0px" y="0px"
	 width="150px" height="150px" viewBox="0 0 150 150" enable-background="new 0 0 150 150" xml:space="preserve">
<g>
	<path fill="#FFFFFF" stroke="#343A40" stroke-width="9" stroke-linejoin="round" stroke-miterlimit="10" d="M104.53,44.732
		c-4.989-4.989-5.063-13.02-0.244-18.113l-9.241-9.248c-2.069-2.072-5.202-2.3-6.996-0.508l-70.181,70.13
		c-1.793,1.791-1.57,4.925,0.5,6.995l9.301,9.31c5.107-4.224,12.684-3.949,17.465,0.832c4.783,4.783,5.056,12.365,0.824,17.472
		l9.313,9.321c2.07,2.072,5.201,2.298,6.996,0.506l70.182-70.128c1.793-1.793,1.569-4.925-0.5-6.997l-9.312-9.319
		C117.542,49.797,109.518,49.72,104.53,44.732z"/>
	
		<polygon fill="none" stroke="#343A40" stroke-width="5" stroke-linecap="round" stroke-linejoin="round" stroke-miterlimit="10" points="
		60.707,66.767 71.44,70.406 80.523,63.628 80.379,74.961 89.632,81.505 78.81,84.869 75.445,95.691 68.9,86.438 57.568,86.583 
		64.347,77.5 	"/>
	<g>
		<g>
			
				<line fill="none" stroke="#343A40" stroke-width="5" stroke-linecap="round" stroke-linejoin="round" x1="71.388" y1="34.217" x2="74.923" y2="37.752"/>
			
				<line fill="none" stroke="#343A40" stroke-width="5" stroke-linecap="round" stroke-linejoin="round" stroke-dasharray="10.6257,10.6257" x1="82.437" y1="45.266" x2="108.734" y2="71.563"/>
			
				<line fill="none" stroke="#343A40" stroke-width="5" stroke-linecap="round" stroke-linejoin="round" x1="112.491" y1="75.32" x2="116.026" y2="78.855"/>
		</g>
	</g>
</g>
</svg>
