<?xml version="1.0" encoding="utf-8"?>
<!-- Generator: Adobe Illustrator 16.0.0, SVG Export Plug-In . SVG Version: 6.00 Build 0)  -->
<!DOCTYPE svg PUBLIC "-//W3C//DTD SVG 1.1//EN" "http://www.w3.org/Graphics/SVG/1.1/DTD/svg11.dtd">
<svg version="1.1" id="Layer_1" xmlns="http://www.w3.org/2000/svg" xmlns:xlink="http://www.w3.org/1999/xlink" x="0px" y="0px"
	 width="150px" height="150px" viewBox="0 0 150 150" enable-background="new 0 0 150 150" xml:space="preserve">
<circle fill="none" stroke="#343A40" stroke-width="9" stroke-miterlimit="10" cx="67.25" cy="74.75" r="56.25"/>
<line fill="none" stroke="#343A40" stroke-width="9" stroke-linecap="round" stroke-miterlimit="10" x1="67.25" y1="131" x2="140.267" y2="131"/>
<g>
	<path fill="#343A40" d="M67.25,70c2.619,0,4.75,2.131,4.75,4.75c0,2.619-2.131,4.75-4.75,4.75s-4.75-2.131-4.75-4.75
		C62.5,72.131,64.631,70,67.25,70 M67.25,64c-5.938,0-10.75,4.813-10.75,10.75c0,5.937,4.812,10.75,10.75,10.75S78,80.688,78,74.75
		C78,68.813,73.188,64,67.25,64L67.25,64z"/>
</g>
<circle fill="none" stroke="#343A40" stroke-width="6" stroke-linecap="round" stroke-miterlimit="10" cx="97.129" cy="65.129" r="10.129"/>
<circle fill="none" stroke="#343A40" stroke-width="6" stroke-linecap="round" stroke-miterlimit="10" cx="87.129" cy="99.129" r="10.129"/>
<circle fill="none" stroke="#343A40" stroke-width="6" stroke-linecap="round" stroke-miterlimit="10" cx="48.129" cy="99.129" r="10.129"/>
<circle fill="none" stroke="#343A40" stroke-width="6" stroke-linecap="round" stroke-miterlimit="10" cx="38.129" cy="65.129" r="10.129"/>
<circle fill="none" stroke="#343A40" stroke-width="6" stroke-linecap="round" stroke-miterlimit="10" cx="67.25" cy="43.129" r="10.129"/>
</svg>
