<?xml version="1.0" encoding="utf-8"?>
<!-- Generator: Adobe Illustrator 16.0.0, SVG Export Plug-In . SVG Version: 6.00 Build 0)  -->
<!DOCTYPE svg PUBLIC "-//W3C//DTD SVG 1.1//EN" "http://www.w3.org/Graphics/SVG/1.1/DTD/svg11.dtd">
<svg version="1.1" id="Layer_1" xmlns="http://www.w3.org/2000/svg" xmlns:xlink="http://www.w3.org/1999/xlink" x="0px" y="0px"
	 width="150px" height="150px" viewBox="0 0 150 150" enable-background="new 0 0 150 150" xml:space="preserve">
<g>
	<path fill="none" stroke="#343A40" stroke-width="9" stroke-linejoin="round" stroke-miterlimit="10" d="M33.119,64.637V24.029
		c0-3.272,2.652-5.924,5.924-5.924h71.084c3.271,0,5.922,2.651,5.922,5.924v40.607"/>
	<polygon fill="none" stroke="#343A40" stroke-width="6" stroke-linejoin="round" stroke-miterlimit="10" points="51.477,131.895 
		41.854,131.895 38.506,117.751 53.986,117.751 	"/>
	<polygon fill="none" stroke="#343A40" stroke-width="6" stroke-linejoin="round" stroke-miterlimit="10" points="108.754,131.895 
		99.131,131.895 95.783,117.751 111.264,117.751 	"/>
	<path fill="none" stroke="#343A40" stroke-width="9" stroke-linejoin="round" stroke-miterlimit="10" d="M133.83,82.269
		c2.084-2.302,3.367-5.345,3.367-8.696c0-7.159-5.803-12.962-12.963-12.962c-4.947,0-9.244,2.774-11.43,6.849l-0.002-0.001
		l-0.014,0.036c-0.311,0.583-0.57,1.197-0.791,1.831l-6.436,14.922c-7.85-2.095-18.547-4.175-30.139-4.175
		c-11.879,0-22.908,2.13-30.953,4.251l-6.469-14.998c-0.221-0.634-0.48-1.248-0.791-1.831l-0.014-0.036l-0.002,0.001
		c-2.186-4.074-6.482-6.849-11.43-6.849c-7.16,0-12.963,5.803-12.963,12.962c0,3.352,1.283,6.395,3.367,8.696l-0.012,0.007
		c0,0,0.012,0.004,0.031,0.013c0.973,1.067,2.109,1.981,3.387,2.677c2.367,2.717,8.098,7.998,8.811,17.956v5.924
		c0,3.271,2.65,5.924,5.922,5.924h81.398c3.273,0,5.924-2.652,5.924-5.924v-6.118c0.734-9.831,6.441-15.062,8.793-17.762
		c1.277-0.695,2.414-1.609,3.387-2.677c0.02-0.009,0.031-0.013,0.031-0.013L133.83,82.269z"/>
</g>
</svg>
