<?xml version="1.0" encoding="utf-8"?>
<!-- Generator: Adobe Illustrator 16.0.0, SVG Export Plug-In . SVG Version: 6.00 Build 0)  -->
<!DOCTYPE svg PUBLIC "-//W3C//DTD SVG 1.1//EN" "http://www.w3.org/Graphics/SVG/1.1/DTD/svg11.dtd">
<svg version="1.1" id="Layer_1" xmlns="http://www.w3.org/2000/svg" xmlns:xlink="http://www.w3.org/1999/xlink" x="0px" y="0px"
	 width="39px" height="32px" viewBox="0 0 39 32" enable-background="new 0 0 39 32" xml:space="preserve">
<title>ticket</title>
<path fill="#DCAF68" d="M39,19.438V25c0,1.104-0.896,2-2,2H2c-1.104,0-2-0.896-2-2v-5.5c1.657,0,3-1.344,3-3c0-1.657-1.343-3-3-3V8
	c0-1.104,0.896-2,2-2h35c1.104,0,2,0.896,2,2v5.438c-1.657,0-3,1.343-3,3C36,18.094,37.343,19.438,39,19.438z M34,11
	c0-1.104-0.896-2-2-2H7c-1.104,0-2,0.896-2,2v11c0,1.104,0.896,2,2,2h25c1.104,0,2-0.896,2-2V11z M32,23H7c-0.553,0-1-0.448-1-1V11
	c0-0.553,0.447-1,1-1h25c0.552,0,1,0.447,1,1v11C33,22.552,32.552,23,32,23z M12.47,15.538l-0.907-2.58l-0.907,2.58l-2.614,0.11
	l2.054,1.704L9.387,20l2.176-1.525L13.738,20l-0.708-2.646l2.053-1.705L12.47,15.538z M20.471,15.538l-0.908-2.58l-0.907,2.58
	l-2.614,0.11l2.054,1.704L17.387,20l2.176-1.525L21.738,20l-0.709-2.646l2.054-1.705L20.471,15.538z M28.471,15.538l-0.908-2.58
	l-0.906,2.58l-2.613,0.11l2.053,1.704L25.387,20l2.176-1.525L29.738,20l-0.709-2.646l2.054-1.705L28.471,15.538z"/>
</svg>
